<?xml version="1.0" encoding="UTF-8"?>
<!DOCTYPE svg PUBLIC "-//W3C//DTD SVG 1.1//EN" "http://www.w3.org/Graphics/SVG/1.1/DTD/svg11.dtd">
<!-- Creator: CorelDRAW X6 -->
<svg xmlns="http://www.w3.org/2000/svg" xml:space="preserve" width="43px" height="37px" version="1.1" style="shape-rendering:geometricPrecision; text-rendering:geometricPrecision; image-rendering:optimizeQuality; fill-rule:evenodd; clip-rule:evenodd"
viewBox="0 0 4300000 3700017"
 xmlns:xlink="http://www.w3.org/1999/xlink">
 <defs>
  <style type="text/css">
   <![CDATA[
    .fil0 {fill:#FEFEFE;fill-rule:nonzero}
   ]]>
  </style>
 </defs>
 <g id="Слой_x0020_1">
  <metadata id="CorelCorpID_0Corel-Layer"/>
  <path class="fil0" d="M3730461 860204c-37587,-14768 -65877,-40479 -84586,-76507 -21883,-42152 -24378,-86627 -8192,-133824l567 0c4479,-12898 10715,-26221 18737,-39941 -49153,3204 -99808,-1927 -149329,-12926 -90454,-20154 -179349,-59952 -245425,-101849 -50967,-32315 -104740,-56438 -161122,-72113 -57373,-15959 -119877,-24010 -187257,-24010 -93005,0 -177959,15874 -254637,47566 -76791,31748 -147912,80277 -213024,145276l283 283c-65452,65452 -114094,136517 -145616,212798 -31691,76677 -47565,161575 -47565,254580 0,26844 1304,52328 3912,76337l113 0c1814,16044 1474,32003 -709,47282 -8730,61484 -44901,111430 -101905,145163 -35405,20920 -81015,35603 -132662,41329l0 57c-37673,4167 -79966,3657 -124612,-2580 -132548,-18680 -262829,-48472 -390615,-89206 -127956,-40791 -251717,-91985 -370971,-153497 -119027,-61370 -230939,-130621 -335623,-207638 -100744,-74098 -195591,-155991 -284118,-245396 -3401,15987 -6094,31549 -8022,46602l0 566c-3430,26561 -5159,56353 -5159,89150 0,57515 6605,112423 19786,164467 13125,51817 32939,101877 59330,149896 13918,25286 28459,48643 43540,69903 14938,21061 31691,41726 50003,61795 41953,46092 68570,91418 78832,131784l-539 141c11594,45185 7314,87648 -13096,126029 -22932,43200 -60123,72029 -111005,84529 -28205,6974 -61512,7739 -99383,1248l4819 14059c25087,70187 62476,135242 111969,194826 31720,38183 65452,71575 101055,100064l567 0c35320,28318 73333,52526 113670,72510 61087,30217 107575,55191 136177,78520 189071,154177 180057,248287 -86231,282898l-567 0c-13266,1673 -25767,3147 -37559,4252 13096,17008 27185,33563 42208,49550 27241,28970 57005,55588 89093,79739l567 0c34186,25767 68372,47225 102303,64262 33818,16951 70441,31067 109559,42236 54114,15420 98476,37587 131018,65084 38098,32258 61937,71660 70073,117212l85 0c8702,48757 -1701,96719 -32032,141960 -21685,32457 -54850,62788 -99808,89802 -136488,81865 -279553,143150 -429025,183657 -29707,8050 -59669,15307 -89915,21742 48954,15789 98533,29792 148678,41953 163106,39401 334149,59131 513015,59131 136007,0 266798,-10602 392061,-31720 126653,-21345 248288,-53122 364679,-95046 116929,-42208 225808,-91843 326438,-148791 99071,-56041 189610,-119197 271560,-189270 167443,-143178 311840,-307843 432937,-493740 60293,-92637 113159,-187768 158429,-285166 45184,-97229 82573,-196158 112025,-296562l170 57c29140,-99610 51336,-200807 66359,-303591 14599,-100092 21997,-201062 21997,-302798l567 0 -113 -26051 -369 -23471c-1077,-55701 32457,-114576 85210,-173537 20296,-22677 43654,-46687 68400,-71065zm364537 -424036c-340,38183 -11622,80108 -35433,123790 38409,12585 68995,35376 90907,67861l0 595c26192,39175 34951,84161 24860,133824 -8617,41982 -32769,87591 -73616,133966l-567 0c-20069,22734 -39657,43937 -58536,63440 -20608,21260 -40989,41414 -61030,60208 -41357,38778 -79483,75969 -104485,103833 -1587,1814 -3146,-255 -4564,-4082l-6888 -6179 170 11480 0 1106 113 27751 596 567c0,114293 -8504,229210 -25370,344665 -16498,112820 -41783,227084 -75629,342597l0 595c-33704,114747 -76025,226914 -126737,336105 -50684,109049 -110353,216256 -178782,321421 -136574,209651 -299056,395038 -487277,555989 -95811,81950 -201516,155651 -316858,220962 -113783,64346 -237714,120813 -371679,169115 -134533,48529 -272779,84841 -414512,108681 -143093,24123 -289730,36255 -439570,36255 -199219,0 -392883,-22762 -580877,-68174 -186747,-45156 -366634,-113046 -539435,-203528 -69449,-36368 -120274,-75260 -146353,-106611l-538 -595c-21232,-25711 -34555,-53292 -39572,-81950l368 -85c-12047,-66898 11140,-120161 69449,-156757 28800,-18113 63695,-27127 103579,-25285l538 0c17773,822 32655,1418 43597,1673l46970 0c138020,0 269689,-16951 394641,-50854 80164,-21713 157607,-50230 232271,-85493 -11792,-5329 -23556,-10942 -35319,-16810 -52385,-26305 -101679,-56891 -147601,-91446l199 -283c-46659,-35178 -88725,-72652 -126086,-112281 -38041,-40422 -72227,-83962 -102359,-130564 -38183,-59017 -59443,-117695 -66926,-166536l482 -85c-5925,-39033 -3969,-75628 4478,-106441 5868,-21487 14485,-40819 25739,-57685 -51336,-41159 -98788,-87988 -142045,-140032 -72567,-87393 -126879,-181475 -162850,-281963 -36142,-101254 -54284,-208914 -54284,-322726l0 -4989 0 -81467 70753 -42492 198 -113 34895 -20920 1191 0c-31805,-62192 -56268,-126908 -73220,-193890 -19219,-75827 -28828,-154149 -28828,-234625 0,-40422 2835,-82602 8561,-126482l56 0c5641,-43540 13635,-84388 23896,-122429 14486,-53631 40394,-97058 73957,-130054 33534,-32825 73701,-54056 117496,-63864l-28 -114c41244,-9241 83905,-8050 125291,3118 52697,14230 104968,44986 149954,91021 79710,81553 166025,156501 258775,224703 92948,68372 192105,129714 297129,183913 106611,54992 215320,100176 325730,135326 110466,35235 224901,61257 343106,77896 9440,1332 18425,2098 26788,2381l-312 -23584c0,-129685 23386,-251179 70214,-364395 46942,-113556 116306,-216341 207809,-307843l595 0c91786,-91786 194315,-161094 307220,-207780 113244,-46829 234737,-70243 364451,-70243 91645,0 179774,11820 264247,35348 85521,23811 165317,59273 239188,106073 42718,27099 98362,52469 152589,64517 35660,7880 68684,10148 91588,2466 12926,-4309 30529,-10715 53065,-19276l595 0c17830,-6775 35490,-13946 52753,-21317 60916,-26050 117808,-34554 164410,-27864 46148,6690 85096,26475 114832,58819l0 567c31493,34441 48359,77528 47877,127559zm-229550 664131l198 13125 6888 6179c-4394,-11849 -7455,-40734 -7086,-20466l0 1162z"/>
 </g>
</svg>
